Coordinates
version=1
nRows=60
nColumns=12
inDegrees=yes

Units are S.I. units (second, meters, Newtons, ...)
Angles are in degrees

endheader
time	SC_y	SC_z	SC_x	AC_y	AC_z	AC_x	GH_y	GH_z	GH_yy	EL_x	PS_y
       0.0              -31.98           13.1          45.76          36.29         -6.379         -19.15         -36.29          57.56          135.4          86.24          128.8
   0.02227              -31.98          13.09          45.76          36.29         -6.381         -19.15         -36.29          57.56          135.4          86.25          128.8
   0.04453              -31.98          13.09          45.76          36.29         -6.382         -19.14         -36.28          57.56          135.3          86.25          128.7
    0.0668              -31.98          13.09          45.76          36.29         -6.384         -19.14         -36.27          57.56          135.3          86.26          128.7
   0.08906              -31.98          13.09          45.76          36.29         -6.385         -19.14         -36.25          57.56          135.3          86.26          128.7
    0.1113              -31.98          13.09          45.77          36.29         -6.387         -19.13         -36.24          57.56          135.3          86.27          128.7
    0.1336              -31.98          13.09          45.77          36.28         -6.389         -19.13         -36.23          57.57          135.3          86.28          128.7
    0.1559              -31.98          13.09          45.77          36.28         -6.391         -19.13         -36.22          57.57          135.2          86.29          128.7
    0.1781              -31.98          13.08          45.77          36.28         -6.393         -19.12          -36.2          57.57          135.2           86.3          128.6
    0.2004              -31.97          13.08          45.77          36.28         -6.395         -19.12         -36.19          57.57          135.2          86.31          128.6
    0.2227              -31.97          13.08          45.77          36.28         -6.398         -19.11         -36.17          57.58          135.2          86.32          128.6
    0.2449              -31.97          13.08          45.78          36.28         -6.401          -19.1         -36.15          57.58          135.1          86.33          128.6
    0.2672              -31.97          13.07          45.78          36.28         -6.403          -19.1         -36.13          57.58          135.1          86.34          128.5
    0.2895              -31.97          13.07          45.78          36.28         -6.407         -19.09         -36.11          57.59          135.1          86.35          128.5
    0.3117              -31.97          13.07          45.78          36.28          -6.41         -19.08         -36.09          57.59          135.0          86.36          128.5
     0.334              -31.97          13.07          45.79          36.28         -6.414         -19.08         -36.07          57.59          135.0          86.38          128.4
    0.3563              -31.97          13.06          45.79          36.27         -6.418         -19.07         -36.04           57.6          134.9           86.4          128.4
    0.3785              -31.97          13.06          45.79          36.27         -6.422         -19.06         -36.01           57.6          134.9          86.41          128.4
    0.4008              -31.97          13.05           45.8          36.27         -6.427         -19.05         -35.98          57.61          134.8          86.43          128.3
    0.4231              -31.96          13.05           45.8          36.27         -6.432         -19.04         -35.95          57.62          134.8          86.45          128.3
    0.4453              -31.96          13.04          45.81          36.27         -6.438         -19.03         -35.91          57.62          134.7          86.48          128.2
    0.4676              -31.96          13.04          45.81          36.27         -6.444         -19.01         -35.87          57.63          134.6           86.5          128.2
    0.4899              -31.96          13.03          45.82          36.26         -6.451          -19.0         -35.82          57.64          134.6          86.53          128.1
    0.5121              -31.96          13.03          45.82          36.26         -6.458         -18.98         -35.77          57.65          134.5          86.56          128.0
    0.5344              -31.95          13.02          45.83          36.26         -6.467         -18.96         -35.72          57.66          134.4          86.59          127.9
    0.5567              -31.95          13.01          45.84          36.25         -6.476         -18.94         -35.65          57.67          134.3          86.63          127.9
    0.5789              -31.95           13.0          45.84          36.25         -6.487         -18.92         -35.58          57.68          134.2          86.68          127.8
    0.6012              -31.95          12.99          45.85          36.25         -6.499         -18.89          -35.5          57.69          134.0          86.72          127.6
    0.6235              -31.94          12.98          45.86          36.24         -6.513         -18.86         -35.41          57.71          133.9          86.78          127.5
    0.6457              -31.94          12.97          45.88          36.24         -6.528         -18.83         -35.31          57.72          133.7          86.84          127.4
     0.668              -31.93          12.95          45.89          36.23         -6.546         -18.79          -35.2          57.74          133.5          86.91          127.2
    0.6903              -31.93          12.93          45.91          36.22         -6.566         -18.75         -35.06          57.77          133.3          86.99          127.0
    0.7125              -31.92          12.91          45.92          36.21         -6.589          -18.7         -34.91          57.79          133.0          87.09          126.8
    0.7348              -31.91          12.89          45.95           36.2         -6.616         -18.64         -34.73          57.82          132.7          87.19          126.6
    0.7571               -31.9          12.86          45.97          36.19         -6.648         -18.57         -34.52          57.86          132.3          87.32          126.3
    0.7793              -31.89          12.83           46.0          36.18         -6.685         -18.49         -34.28           57.9          131.9          87.47          125.9
    0.8016              -31.88          12.79          46.04          36.16         -6.729          -18.4         -33.99          57.95          131.4          87.65          125.5
    0.8238              -31.87          12.74          46.08          36.15         -6.782         -18.29         -33.64          58.01          130.8          87.86          125.0
    0.8461              -31.85          12.69          46.13          36.12         -6.847         -18.15         -33.21          58.08          130.1          88.12          124.4
    0.8684              -31.82          12.62          46.19          36.09         -6.925         -17.98         -32.69          58.17          129.2          88.44          123.7
    0.8906               -31.8          12.53          46.27          36.06         -7.022         -17.77         -32.06          58.28          128.1          88.83          122.8
    0.9129              -31.76          12.43          46.36          36.02         -7.143         -17.51         -31.26          58.42          126.7          89.32          121.6
    0.9352              -31.72          12.29          46.48          35.96         -7.295         -17.19         -30.26          58.59          125.0          89.93          120.2
    0.9574              -31.67          12.12          46.63           35.9         -7.488         -16.77         -28.98          58.81          122.8          90.71          118.4
    0.9797              -31.59          11.91          46.83          35.81         -7.736         -16.24         -27.35          59.09          120.0           91.7          116.1
     1.002               -31.5          11.63          47.08           35.7         -8.053         -15.56         -25.25          59.45          116.4          92.98          113.1
     1.024              -31.39          11.27           47.4          35.55         -8.459         -14.69         -22.58          59.91          111.8          94.62          109.3
     1.047              -31.25          10.83           47.8          35.37         -8.969         -13.59         -19.21          60.48          106.1          96.67          104.5
     1.069              -31.07          10.28          48.29          35.15         -9.591         -12.26         -15.11          61.19          99.03          99.18          98.69
     1.091              -30.86          9.653          48.86          34.89         -10.31         -10.71         -10.36           62.0          90.87          102.1          91.94
     1.113              -30.64          8.969          49.48          34.62         -11.09         -9.038         -5.212          62.89          82.04          105.2          84.63
     1.136              -30.42          8.286          50.09          34.34         -11.87         -7.363       -0.06545          63.77          73.21          108.4          77.32
     1.158              -30.22          7.655          50.66          34.09         -12.59         -5.817          4.688          64.58          65.05          111.3          70.57
      1.18              -30.04          7.111          51.15          33.87         -13.21         -4.483          8.788          65.29          58.02          113.8          64.75
     1.202               -29.9          6.664          51.56          33.69         -13.72         -3.388          12.15          65.86          52.24          115.8          59.97
     1.225              -29.78          6.309          51.88          33.54         -14.13         -2.517          14.83          66.32          47.65          117.5          56.17
     1.247              -29.69           6.03          52.13          33.43         -14.45         -1.836          16.92          66.68          44.05          118.7          53.19
     1.269              -29.62          5.814          52.32          33.34          -14.7         -1.304          18.56          66.96          41.25          119.7          50.87
     1.291              -29.57          5.644          52.47          33.27         -14.89        -0.8895          19.83          67.18          39.06          120.5          49.06
     1.314              -29.52          5.511          52.59          33.22         -15.04        -0.5631          20.84          67.35          37.34          121.1          47.64
